<svg width="85" height="85" viewBox="0 0 85 85" fill="none" xmlns="http://www.w3.org/2000/svg">
<rect width="84.3135" height="84.3135" fill="white"/>
<path d="M21.0784 70.2612C19.1462 70.2612 17.4927 69.5738 16.1179 68.199C14.7431 66.8242 14.0546 65.1696 14.0522 63.235V56.2089C14.0522 55.2136 14.3895 54.3798 15.064 53.7076C15.7385 53.0355 16.5723 52.6982 17.5653 52.6959C18.5583 52.6935 19.3933 53.0308 20.0701 53.7076C20.747 54.3845 21.0831 55.2182 21.0784 56.2089V63.235H63.2351V56.2089C63.2351 55.2136 63.5724 54.3798 64.2469 53.7076C64.9214 53.0355 65.7552 52.6982 66.7482 52.6959C67.7412 52.6935 68.5762 53.0308 69.253 53.7076C69.9299 54.3845 70.2659 55.2182 70.2613 56.2089V63.235C70.2613 65.1672 69.5739 66.8219 68.1991 68.199C66.8243 69.5761 65.1697 70.2635 63.2351 70.2612H21.0784ZM38.6437 27.5775L32.0567 34.1645C31.3541 34.8671 30.5203 35.2043 29.5554 35.1762C28.5905 35.1481 27.7555 34.7816 27.0506 34.0766C26.4065 33.374 26.0693 32.5543 26.0388 31.6175C26.0084 30.6807 26.3456 29.861 27.0506 29.1583L39.6976 16.5113C40.0489 16.16 40.4295 15.9117 40.8394 15.7665C41.2492 15.6213 41.6883 15.5476 42.1567 15.5452C42.6252 15.5429 43.0643 15.6167 43.4741 15.7665C43.884 15.9164 44.2646 16.1647 44.6159 16.5113L57.2629 29.1583C57.9655 29.861 58.3028 30.6807 58.2747 31.6175C58.2466 32.5543 57.9093 33.374 57.2629 34.0766C56.5603 34.7792 55.7265 35.1458 54.7616 35.1762C53.7967 35.2067 52.9618 34.8694 52.2568 34.1645L45.6698 27.5775V52.6959C45.6698 53.6912 45.3326 54.5262 44.6581 55.2007C43.9835 55.8752 43.1498 56.2113 42.1567 56.2089C41.1637 56.2066 40.33 55.8693 39.6554 55.1972C38.9809 54.525 38.6437 53.6912 38.6437 52.6959V27.5775Z" fill="#A9B0BB"/>
</svg>
