<svg width="511" height="222" viewBox="0 0 511 222" fill="none" xmlns="http://www.w3.org/2000/svg">
<rect width="511" height="222" fill="#F3F4F6"/>
<path d="M234.792 84.875H273.25C275.604 84.875 277.862 85.81 279.526 87.4744C281.19 89.1388 282.125 91.3962 282.125 93.75V132.208C282.125 134.562 281.19 136.82 279.526 138.484C277.862 140.148 275.604 141.083 273.25 141.083H234.792C232.438 141.083 230.181 140.148 228.516 138.484C226.852 136.82 225.917 134.562 225.917 132.208V93.75C225.917 91.3962 226.852 89.1388 228.516 87.4744C230.181 85.81 232.438 84.875 234.792 84.875ZM234.792 87.8333C233.223 87.8333 231.718 88.4567 230.608 89.5663C229.499 90.6759 228.875 92.1808 228.875 93.75V128.037L241.567 115.316L248.962 122.712L263.754 107.92L279.167 123.333V93.75C279.167 92.1808 278.544 90.6759 277.434 89.5663C276.324 88.4567 274.82 87.8333 273.25 87.8333H234.792ZM248.962 126.913L241.567 119.517L228.875 132.208C228.875 133.778 229.499 135.282 230.608 136.392C231.718 137.502 233.223 138.125 234.792 138.125H273.25C274.82 138.125 276.324 137.502 277.434 136.392C278.544 135.282 279.167 133.778 279.167 132.208V127.505L263.754 112.121L248.962 126.913ZM242.188 93.75C244.149 93.75 246.03 94.5292 247.417 95.9162C248.804 97.3032 249.584 99.1843 249.584 101.146C249.584 103.107 248.804 104.988 247.417 106.375C246.03 107.762 244.149 108.542 242.188 108.542C240.226 108.542 238.345 107.762 236.958 106.375C235.571 104.988 234.792 103.107 234.792 101.146C234.792 99.1843 235.571 97.3032 236.958 95.9162C238.345 94.5292 240.226 93.75 242.188 93.75ZM242.188 96.7083C241.011 96.7083 239.882 97.1759 239.05 98.008C238.218 98.8402 237.75 99.9689 237.75 101.146C237.75 102.323 238.218 103.451 239.05 104.284C239.882 105.116 241.011 105.583 242.188 105.583C243.365 105.583 244.493 105.116 245.326 104.284C246.158 103.451 246.625 102.323 246.625 101.146C246.625 99.9689 246.158 98.8402 245.326 98.008C244.493 97.1759 243.365 96.7083 242.188 96.7083Z" fill="#A9B0BB"/>
</svg>
