<svg width="21" height="21" viewBox="0 0 21 21" fill="none" xmlns="http://www.w3.org/2000/svg">
<path d="M16.9026 14.3534C16.3893 13.8397 15.7895 13.4204 15.1307 13.1147C16.0597 12.3621 16.6524 11.2137 16.6524 9.92577C16.6524 7.65351 14.7575 5.78935 12.4852 5.82421C10.2478 5.85908 8.44517 7.68222 8.44517 9.92577C8.44517 11.2137 9.0399 12.3621 9.96685 13.1147C9.30796 13.4202 8.70813 13.8395 8.19497 14.3534C7.07525 15.4752 6.4395 16.9559 6.39849 18.535C6.39794 18.5568 6.40178 18.5786 6.40978 18.599C6.41778 18.6194 6.42978 18.638 6.44507 18.6536C6.46036 18.6693 6.47863 18.6817 6.49881 18.6902C6.51898 18.6987 6.54066 18.7031 6.56255 18.7031H7.71099C7.79917 18.7031 7.873 18.6334 7.87505 18.5452C7.91402 17.3558 8.39595 16.2422 9.24292 15.3973C9.67633 14.9615 10.1919 14.6161 10.7597 14.381C11.3275 14.1458 11.9363 14.0256 12.5508 14.0273C13.7998 14.0273 14.9749 14.5134 15.8587 15.3973C16.7037 16.2422 17.1856 17.3558 17.2266 18.5452C17.2287 18.6334 17.3025 18.7031 17.3907 18.7031H18.5391C18.561 18.7031 18.5827 18.6987 18.6029 18.6902C18.623 18.6817 18.6413 18.6693 18.6566 18.6536C18.6719 18.638 18.6839 18.6194 18.6919 18.599C18.6999 18.5786 18.7037 18.5568 18.7032 18.535C18.6622 16.9559 18.0264 15.4752 16.9026 14.3534ZM12.5508 12.5508C11.8495 12.5508 11.1891 12.278 10.6949 11.7817C10.4468 11.5357 10.2509 11.2421 10.1188 10.9187C9.98666 10.5952 9.92103 10.2485 9.92583 9.89911C9.93198 9.22646 10.2006 8.57636 10.6703 8.09443C11.1625 7.58993 11.8208 7.30898 12.5242 7.30077C13.2194 7.29462 13.8941 7.56533 14.3904 8.05136C14.899 8.5497 15.1779 9.2162 15.1779 9.92577C15.1779 10.6271 14.9051 11.2854 14.4088 11.7817C14.1654 12.0264 13.8758 12.2203 13.5569 12.3523C13.2379 12.4843 12.896 12.5518 12.5508 12.5508ZM7.41363 10.4672C7.39517 10.2888 7.38491 10.1083 7.38491 9.92577C7.38491 9.5997 7.41568 9.28183 7.4731 8.97216C7.48745 8.89833 7.44849 8.82245 7.38081 8.79169C7.10191 8.66659 6.84556 8.49433 6.62407 8.27695C6.36309 8.02389 6.15772 7.71922 6.02107 7.38236C5.88442 7.0455 5.81949 6.68386 5.83042 6.3205C5.84888 5.6622 6.11343 5.03671 6.57486 4.56503C7.0814 4.04618 7.76226 3.76318 8.48618 3.77138C9.14038 3.77753 9.77202 4.02978 10.2499 4.47685C10.4119 4.62861 10.5513 4.79677 10.6682 4.97724C10.7092 5.04081 10.7892 5.06747 10.8589 5.04286C11.2199 4.91777 11.6013 4.82958 11.993 4.78857C12.1079 4.77626 12.1735 4.65322 12.1222 4.55068C11.4557 3.23202 10.094 2.32148 8.519 2.29687C6.24468 2.262 4.34976 4.12616 4.34976 6.39638C4.34976 7.68427 4.94243 8.83271 5.87144 9.58534C5.21929 9.88681 4.61841 10.3031 4.09751 10.824C2.97368 11.9458 2.33794 13.4265 2.29693 15.0076C2.29638 15.0295 2.30022 15.0513 2.30822 15.0717C2.31622 15.092 2.32821 15.1106 2.3435 15.1263C2.35879 15.142 2.37707 15.1544 2.39724 15.1629C2.41742 15.1714 2.43909 15.1758 2.46099 15.1758H3.61148C3.69966 15.1758 3.77349 15.106 3.77554 15.0179C3.8145 13.8284 4.29644 12.7148 5.14341 11.8699C5.74634 11.267 6.48462 10.8486 7.29058 10.6456C7.37056 10.6251 7.42388 10.5492 7.41363 10.4672Z" fill="#A9B0BB"/>
</svg>
