<svg width="24" height="24" viewBox="0 0 24 24" fill="none" xmlns="http://www.w3.org/2000/svg">
<path d="M11.001 10H13.001V15H11.001V10ZM11 16H13V18H11V16Z" fill="currentColor"/>
<path d="M13.7683 4.19994C13.4203 3.54494 12.7423 3.13794 12.0003 3.13794C11.2583 3.13794 10.5803 3.54494 10.2323 4.20094L2.89432 18.0639C2.73188 18.3685 2.65144 18.7101 2.66091 19.0551C2.67037 19.4001 2.76942 19.7368 2.94832 20.0319C3.12472 20.3286 3.3756 20.574 3.67607 20.7438C3.97655 20.9136 4.31619 21.0019 4.66132 20.9999H19.3393C20.0473 20.9999 20.6883 20.6379 21.0533 20.0319C21.2322 19.7368 21.3313 19.4001 21.3407 19.0551C21.3502 18.7101 21.2698 18.3685 21.1073 18.0639L13.7683 4.19994ZM4.66132 18.9999L12.0003 5.13694L19.3443 18.9999H4.66132Z" fill="currentColor"/>
</svg>
